<?xml version="1.0" standalone="no"?>
<!DOCTYPE svg PUBLIC "-//W3C//DTD SVG 20010904//EN"
 "http://www.w3.org/TR/2001/REC-SVG-20010904/DTD/svg10.dtd">
<svg version="1.0" xmlns="http://www.w3.org/2000/svg"
 width="512.000000pt" height="512.000000pt" viewBox="0 0 512.000000 512.000000"
 preserveAspectRatio="xMidYMid meet">
<metadata>
Created by potrace 1.11, written by Peter Selinger 2001-2013
</metadata>
<g transform="translate(0.000000,512.000000) scale(0.100000,-0.100000)"
fill="#000000" stroke="none">
<path d="M1678 4291 c-2 -60 -2 -152 0 -203 l3 -93 114 -1 115 0 0 203 0 203
-114 0 -115 0 -3 -109z"/>
<path d="M1083 4207 l-92 -53 101 -176 101 -176 41 28 c22 15 65 40 94 55 28
15 52 29 52 32 0 5 -56 107 -85 153 -12 19 -35 60 -52 90 -39 72 -57 100 -63
100 -3 0 -46 -24 -97 -53z"/>
<path d="M2387 4238 c-20 -31 -161 -277 -176 -305 -10 -20 -7 -24 39 -47 28
-14 70 -39 94 -56 l44 -30 23 38 c13 20 29 48 37 62 7 14 43 76 79 139 62 107
65 114 47 125 -10 6 -26 15 -35 21 -17 10 -119 68 -131 73 -4 2 -13 -7 -21
-20z"/>
<path d="M575 3702 c-28 -48 -51 -92 -53 -98 -1 -6 21 -24 49 -40 29 -16 64
-36 78 -44 166 -97 215 -122 219 -112 2 6 26 48 53 93 27 46 46 86 42 90 -7 7
-140 85 -283 166 l-55 32 -50 -87z"/>
<path d="M1665 3778 c-295 -52 -528 -248 -629 -527 -35 -96 -40 -135 -40 -276
1 -143 17 -212 79 -340 44 -89 57 -108 127 -188 l36 -42 -19 -25 c-104 -132
-149 -251 -150 -394 -3 -290 187 -534 466 -600 64 -15 183 -16 1310 -14 1351
4 1245 -1 1386 59 189 80 333 246 401 459 31 99 33 290 4 390 -52 179 -173
338 -323 426 -55 32 -63 40 -64 68 -11 540 -440 983 -969 1001 -138 4 -226 -7
-340 -41 -156 -48 -297 -131 -413 -244 -67 -66 -67 -66 -82 -43 -32 48 -142
157 -198 195 -80 54 -191 104 -274 124 -79 19 -236 25 -308 12z"/>
<path d="M390 2990 l0 -110 195 0 195 0 -1 93 c0 51 1 99 3 107 3 13 -28 15
-194 18 l-198 2 0 -110z"/>
<path d="M740 2509 c-63 -38 -139 -81 -168 -96 -41 -22 -51 -31 -46 -46 5 -15
89 -164 99 -175 3 -3 286 156 333 186 9 6 0 30 -37 93 -28 46 -54 89 -58 95
-5 8 -45 -11 -123 -57z"/>
<path d="M1900 760 l-180 -360 120 0 120 0 180 360 180 360 -120 0 -120 0
-180 -360z"/>
<path d="M2380 760 l-180 -360 120 0 120 0 180 360 180 360 -120 0 -120 0
-180 -360z"/>
<path d="M2860 760 l-180 -360 120 0 120 0 180 360 180 360 -120 0 -120 0
-180 -360z"/>
<path d="M3340 760 l-180 -360 120 0 120 0 180 360 180 360 -120 0 -120 0
-180 -360z"/>
</g>
</svg>
